<?xml version="1.0" encoding="utf-8"?>
<!-- Svg Vector Icons : http://www.onlinewebfonts.com/icon -->
<!DOCTYPE svg PUBLIC "-//W3C//DTD SVG 1.1//EN" "http://www.w3.org/Graphics/SVG/1.1/DTD/svg11.dtd">
<svg version="1.1" xmlns="http://www.w3.org/2000/svg" xmlns:xlink="http://www.w3.org/1999/xlink" x="0px" y="0px" width="20px" height="20px" viewBox="0 0 1000 1000" enable-background="new 0 0 1000 1000" xml:space="preserve">
<metadata> Svg Vector Icons : http://www.onlinewebfonts.com/icon </metadata>
<g><path fill="currentColor" d="M867.5,10h-735C64.8,10,10,64.8,10,132.5v735C10,935.2,64.8,990,132.5,990h735c67.7,0,122.5-54.8,122.5-122.5v-735C990,64.8,935.2,10,867.5,10z M928.7,867.5c0,33.9-27.4,61.3-61.2,61.3h-735c-33.8,0-61.3-27.4-61.3-61.3v-735c0-33.8,27.5-61.3,61.3-61.3h735c33.8,0,61.2,27.5,61.2,61.3V867.5z M651.7,348.4c-12-12-31.5-12-43.4,0L500,456.7L391.7,348.4c-11.9-12-31.3-12-43.3,0c-12,12-12,31.4,0,43.4L456.7,500L348.4,608.3c-12,11.9-12,31.3,0,43.3c12,12,31.4,12,43.3,0L500,543.4l108.2,108.2c11.9,12,31.4,12,43.4,0c11.9-12,11.9-31.4,0-43.3L543.3,500l108.3-108.2C663.6,379.8,663.6,360.4,651.7,348.4z"/></g>
</svg>