<?xml version="1.0" encoding="utf-8"?>
<!-- Svg Vector Icons : http://www.onlinewebfonts.com/icon -->
<!DOCTYPE svg PUBLIC "-//W3C//DTD SVG 1.1//EN" "http://www.w3.org/Graphics/SVG/1.1/DTD/svg11.dtd">
<svg version="1.1" xmlns="http://www.w3.org/2000/svg" xmlns:xlink="http://www.w3.org/1999/xlink" x="0px" y="0px" width="20px" height="20px" viewBox="0 0 1000 1000" enable-background="new 0 0 1000 1000" xml:space="preserve">
<metadata> Svg Vector Icons : http://www.onlinewebfonts.com/icon </metadata>
<g><path fill="currentColor" d="M227.8,500c0,59.9-49,108.9-108.9,108.9S10,559.9,10,500s49-108.9,108.9-108.9S227.8,440.1,227.8,500z"/><path d="M608.9,500c0,59.9-49,108.9-108.9,108.9s-108.9-49-108.9-108.9s49-108.9,108.9-108.9S608.9,440.1,608.9,500z"/><path d="M990,500c0,59.9-49,108.9-108.9,108.9s-108.9-49-108.9-108.9s49-108.9,108.9-108.9S990,440.1,990,500z"/></g>
</svg>