<?xml version="1.0" encoding="utf-8"?>
<!-- Svg Vector Icons : http://www.onlinewebfonts.com/icon -->
<!DOCTYPE svg PUBLIC "-//W3C//DTD SVG 1.1//EN" "http://www.w3.org/Graphics/SVG/1.1/DTD/svg11.dtd">
<svg version="1.1" xmlns="http://www.w3.org/2000/svg" xmlns:xlink="http://www.w3.org/1999/xlink" width="20px" height="20px" x="0px" y="0px" viewBox="0 0 1000 1000" enable-background="new 0 0 1000 1000" xml:space="preserve">
<metadata> Svg Vector Icons : http://www.onlinewebfonts.com/icon </metadata>
<g><path fill="currentColor" d="M165.9,860.6c-4.4,0-8.6-1.7-11.8-4.9c-4.2-4.3-5.9-10.5-4.3-16.3l66.8-246c0.8-2.8,2.2-5.4,4.3-7.4L777.7,26.9c6.5-6.6,17.1-6.6,23.6,0l178.2,178.9c6.5,6.6,6.5,17.2,0,23.7L422.7,788.6c-2.1,2.1-4.6,3.6-7.4,4.3l-245,67.1C168.9,860.4,167.4,860.6,165.9,860.6z M247.7,606.6l-58,213.4l212.5-58.2l541.9-544.1L789.5,62.4L247.7,606.6z"/>
<path fill="currentColor" d="M410.9,793.5c-4.3,0-8.5-1.6-11.8-4.9L220.9,609.7c-6.5-6.6-6.5-17.2,0-23.7c6.5-6.6,17.1-6.6,23.6,0l178.2,178.9c6.5,6.6,6.5,17.2,0,23.7C419.5,791.9,415.2,793.5,410.9,793.5z"/>
<path fill="currentColor" d="M344.1,637c-4.3,0-8.5-1.6-11.8-4.9c-6.5-6.6-6.5-17.2,0-23.7L800,138.7c6.5-6.6,17.1-6.6,23.6,0c6.5,6.6,6.5,17.2,0,23.7L355.9,632.1C352.6,635.3,348.4,637,344.1,637z"/>
<path fill="currentColor" d="M967.7,978H32.3C20,978,10,968,10,955.7c0-12.3,10-22.4,22.3-22.4l935.5,0c12.3,0,22.3,10,22.3,22.4C990,968,980,978,967.7,978z"/></g>
</svg>